<?xml version="1.0" encoding="UTF-8"?>
<svg xmlns="http://www.w3.org/2000/svg" width="1024" height="1024" viewBox="0 0 1024 1024" role="img" aria-labelledby="title desc">
  <title id="title">UD News Update Logo</title>
  <desc id="desc">Rounded square orange gradient with UD monogram</desc>
  <defs>
    <linearGradient id="g" x1="0" y1="0" x2="1" y2="1">
      <stop offset="0%" stop-color="#ffb74d"/>
      <stop offset="50%" stop-color="#fb923c"/>
      <stop offset="100%" stop-color="#f97316"/>
    </linearGradient>
    <filter id="shadow" x="-20%" y="-20%" width="140%" height="140%">
      <feDropShadow dx="0" dy="8" stdDeviation="16" flood-color="#000" flood-opacity="0.25"/>
    </filter>
  </defs>
  <rect x="64" y="64" width="896" height="896" rx="200" fill="url(#g)" filter="url(#shadow)"/>
  <g fill="#ffffff">
    <!-- U -->
    <path d="M262 300h110v280c0 82 46 126 140 126s140-44 140-126V300h110v286c0 142-102 238-250 238s-250-96-250-238V300z"/>
    <!-- D (stylized by overlaying a circle on a rect to cut inner hole) -->
    <g>
      <path d="M562 300h180c112 0 200 88 200 200s-88 200-200 200H562V300z"/>
      <circle cx="742" cy="500" r="110" fill="url(#g)"/>
    </g>
  </g>
</svg>
